# xmcd CD database file
# Copyright (C) 1993-1998 Ti Kan
#
# Track frame offsets:
#	150
#	18665
#	47032
#	71102
#	95725
#	114990
#	133337
#	157460
#	182162
#	197510
#	221662
#	237655
#	252730
#	267562
#	283445
#	297812
#	312790
#	335832
#
# Disc length: 4724 seconds
#
# Revision: 0
# Processed by: cddbd v1.4b41PL1 Copyright (c) Steve Scherf et al.
# Submitted via: CDmax 1.5.3
#
DISCID=39127212
DTITLE=Chris Burroughs - West Of Texas. Trade Of Chains
DYEAR=1900
DGENRE=
TTITLE0=Trade Of Chains
TTITLE1=West Of Texas
TTITLE2=Here Today
TTITLE3=Shakedown
TTITLE4=Memorial Windows
TTITLE5=Signs Of Life
TTITLE6=Danced
TTITLE7=All Points East
TTITLE8=Too Many Criminals
TTITLE9=Something More
TTITLE10=Walking The Length Of Zion
TTITLE11=The Cameraman
TTITLE12=Mile Wide Road
TTITLE13=Dry Law
TTITLE14=All Broken Up
TTITLE15=Double Time
TTITLE16=Skeleton Radio
TTITLE17=Morning Light
EXTD=
EXTT0=
EXTT1=
EXTT2=
EXTT3=
EXTT4=
EXTT5=
EXTT6=
EXTT7=
EXTT8=
EXTT9=
EXTT10=
EXTT11=
EXTT12=
EXTT13=
EXTT14=
EXTT15=
EXTT16=
EXTT17=
PLAYORDER=
